{"accessors":[{"name":"pCube13_1_positions","componentType":5126,"count":62,"min":[-4.774991035461426,0.3471669852733612,0.706125020980835],"max":[-3.656682014465332,1.2181799411773682,1.706125020980835],"type":"VEC3","bufferView":0,"byteOffset":0},{"name":"pCube13_1_normals","componentType":5126,"count":62,"min":[-0.8660249710083008,-0.896435022354126,-0.9910629987716675],"max":[0.8660249710083008,0.8914830088615417,0.9910629987716675],"type":"VEC3","bufferView":0,"byteOffset":16464},{"name":"pCube13_1_texcoords","componentType":5126,"count":62,"min":[0.125,0],"max":[0.875,1],"type":"VEC2","bufferView":1,"byteOffset":0},{"name":"pCube13_1_0_indices","componentType":5123,"count":168,"min":[0],"max":[61],"type":"SCALAR","bufferView":2,"byteOffset":0},{"name":"polySurface38 pCube10_1_positions","componentType":5126,"count":62,"min":[-4.645565986633301,0.20050400495529175,0.0681769996881485],"max":[-3.3013229370117188,0.8793169856071472,1.4132260084152222],"type":"VEC3","bufferView":0,"byteOffset":744},{"name":"polySurface38 pCube10_1_normals","componentType":5126,"count":62,"min":[-0.9686369895935059,-0.9705209732055664,-0.9673960208892822],"max":[0.9194759726524353,0.9681620001792908,0.9206140041351318],"type":"VEC3","bufferView":0,"byteOffset":17208},{"name":"polySurface38 pCube10_1_texcoords","componentType":5126,"count":62,"min":[0.125,0],"max":[0.875,1],"type":"VEC2","bufferView":1,"byteOffset":496},{"name":"polySurface38 pCube10_1_0_indices","componentType":5123,"count":168,"min":[0],"max":[61],"type":"SCALAR","bufferView":2,"byteOffset":336},{"name":"pCube4_1_positions","componentType":5126,"count":62,"min":[-4.005247116088867,0.744081974029541,1.3447580337524414],"max":[-3.005247116088867,1.4192520380020142,2.3493270874023438],"type":"VEC3","bufferView":0,"byteOffset":1488},{"name":"pCube4_1_normals","componentType":5126,"count":62,"min":[-0.9872699975967407,-0.9860870242118835,-0.766044020652771],"max":[0.9872699975967407,0.970058023929596,0.766044020652771],"type":"VEC3","bufferView":0,"byteOffset":17952},{"name":"pCube4_1_texcoords","componentType":5126,"count":62,"min":[0.125,0],"max":[0.875,1],"type":"VEC2","bufferView":1,"byteOffset":992},{"name":"pCube4_1_0_indices","componentType":5123,"count":168,"min":[0],"max":[61],"type":"SCALAR","bufferView":2,"byteOffset":672},{"name":"pCube5_1_positions","componentType":5126,"count":62,"min":[-4.006256103515625,0.7516760230064392,0.19275300204753876],"max":[-3.002815008163452,1.5420160293579102,0.9632650017738342],"type":"VEC3","bufferView":0,"byteOffset":2232},{"name":"pCube5_1_normals","componentType":5126,"count":62,"min":[-0.9824360013008118,-0.8518329858779907,-0.9358230233192444],"max":[0.9864000082015991,0.8441320061683655,0.9036470055580139],"type":"VEC3","bufferView":0,"byteOffset":18696},{"name":"pCube5_1_texcoords","componentType":5126,"count":62,"min":[0.125,0],"max":[0.875,1],"type":"VEC2","bufferView":1,"byteOffset":1488},{"name":"pCube5_1_0_indices","componentType":5123,"count":168,"min":[0],"max":[61],"type":"SCALAR","bufferView":2,"byteOffset":1008},{"name":"pCube10 polySurface31_1_positions","componentType":5126,"count":62,"min":[-3.700547933578491,0.388482004404068,1.0194590091705322],"max":[-2.450484037399292,1.4597309827804565,2.269958019256592],"type":"VEC3","bufferView":0,"byteOffset":2976},{"name":"pCube10 polySurface31_1_normals","componentType":5126,"count":62,"min":[-0.8493260145187378,-0.8510460257530212,-0.8473560214042664],"max":[0.9130979776382446,0.8459630012512207,0.9119309782981873],"type":"VEC3","bufferView":0,"byteOffset":19440},{"name":"pCube10 polySurface31_1_texcoords","componentType":5126,"count":62,"min":[0.125,0],"max":[0.875,1],"type":"VEC2","bufferView":1,"byteOffset":1984},{"name":"pCube10 polySurface31_1_0_indices","componentType":5123,"count":168,"min":[0],"max":[61],"type":"SCALAR","bufferView":2,"byteOffset":1344},{"name":"pCube1_1_positions","componentType":5126,"count":62,"min":[-3.3411600589752197,0.7399579882621765,0.7349439859390259],"max":[-2.5374538898468018,1.4293349981307983,1.7349439859390259],"type":"VEC3","bufferView":0,"byteOffset":3720},{"name":"pCube1_1_normals","componentType":5126,"count":62,"min":[-0.8660249710083008,-0.9068419933319092,-0.9832990169525146],"max":[0.8989080190658569,0.9003530144691467,0.9832990169525146],"type":"VEC3","bufferView":0,"byteOffset":20184},{"name":"pCube1_1_texcoords","componentType":5126,"count":62,"min":[0.125,0],"max":[0.875,1],"type":"VEC2","bufferView":1,"byteOffset":2480},{"name":"pCube1_1_0_indices","componentType":5123,"count":168,"min":[0],"max":[61],"type":"SCALAR","bufferView":2,"byteOffset":1680},{"name":"pCube10 polySurface35_1_positions","componentType":5126,"count":380,"min":[-3.9418110847473145,0.2976529896259308,0.6920650005340576],"max":[-2.9544320106506348,1.5842599868774414,1.6800589561462402],"type":"VEC3","bufferView":0,"byteOffset":4464},{"name":"pCube10 polySurface35_1_normals","componentType":5126,"count":380,"min":[-0.9769719839096069,-0.9799730181694031,-0.976364016532898],"max":[0.9769719839096069,0.5916339755058289,0.976364016532898],"type":"VEC3","bufferView":0,"byteOffset":20928},{"name":"pCube10 polySurface35_1_texcoords","componentType":5126,"count":380,"min":[0,0],"max":[1,1],"type":"VEC2","bufferView":1,"byteOffset":2976},{"name":"pCube10 polySurface35_1_0_indices","componentType":5123,"count":540,"min":[0],"max":[379],"type":"SCALAR","bufferView":2,"byteOffset":2016},{"name":"pCube10 polySurface37_1_positions","componentType":5126,"count":62,"min":[-3.6823110580444336,0.18502600491046906,0.15647299587726593],"max":[-2.3443000316619873,0.941074013710022,1.4832069873809814],"type":"VEC3","bufferView":0,"byteOffset":9024},{"name":"pCube10 polySurface37_1_normals","componentType":5126,"count":62,"min":[-0.9145079851150513,-0.9553120136260986,-0.9594720005989075],"max":[0.9614750146865845,0.9524340033531189,0.9023910164833069],"type":"VEC3","bufferView":0,"byteOffset":25488},{"name":"pCube10 polySurface37_1_texcoords","componentType":5126,"count":62,"min":[0.125,0],"max":[0.875,1],"type":"VEC2","bufferView":1,"byteOffset":6016},{"name":"pCube10 polySurface37_1_0_indices","componentType":5123,"count":168,"min":[0],"max":[61],"type":"SCALAR","bufferView":2,"byteOffset":3096},{"name":"pCube11_1_positions","componentType":5126,"count":62,"min":[-3.4062139987945557,0.32576701045036316,0.7349439859390259],"max":[-2.3019819259643555,1.1886520385742188,1.7349439859390259],"type":"VEC3","bufferView":0,"byteOffset":9768},{"name":"pCube11_1_normals","componentType":5126,"count":62,"min":[-0.8660249710083008,-0.8967859745025635,-0.9908440113067627],"max":[0.8660249710083008,0.8917809724807739,0.9908440113067627],"type":"VEC3","bufferView":0,"byteOffset":26232},{"name":"pCube11_1_texcoords","componentType":5126,"count":62,"min":[0.125,0],"max":[0.875,1],"type":"VEC2","bufferView":1,"byteOffset":6512},{"name":"pCube11_1_0_indices","componentType":5123,"count":168,"min":[0],"max":[61],"type":"SCALAR","bufferView":2,"byteOffset":3432},{"name":"pCube10 polySurface32_1_positions","componentType":5126,"count":62,"min":[-4.520236968994141,0.5253530144691467,1.0364389419555664],"max":[-3.309530019760132,1.4573860168457031,2.24686598777771],"type":"VEC3","bufferView":0,"byteOffset":10512},{"name":"pCube10 polySurface32_1_normals","componentType":5126,"count":62,"min":[-0.8358420133590698,-0.956741988658905,-0.8907889723777771],"max":[0.8896510004997253,0.9363300204277039,0.8378570079803467],"type":"VEC3","bufferView":0,"byteOffset":26976},{"name":"pCube10 polySurface32_1_texcoords","componentType":5126,"count":62,"min":[0.125,0],"max":[0.875,1],"type":"VEC2","bufferView":1,"byteOffset":7008},{"name":"pCube10 polySurface32_1_0_indices","componentType":5123,"count":168,"min":[0],"max":[61],"type":"SCALAR","bufferView":2,"byteOffset":3768},{"name":"pCube10 polySurface34_1_positions","componentType":5126,"count":62,"min":[-3.6240029335021973,0.40227898955345154,0.30703499913215637],"max":[-2.376893997192383,1.5037529468536377,1.5372179746627808],"type":"VEC3","bufferView":0,"byteOffset":11256},{"name":"pCube10 polySurface34_1_normals","componentType":5126,"count":62,"min":[-0.8462709784507751,-0.8363230228424072,-0.9018089771270752],"max":[0.9099630117416382,0.8310220241546631,0.8434529900550842],"type":"VEC3","bufferView":0,"byteOffset":27720},{"name":"pCube10 polySurface34_1_texcoords","componentType":5126,"count":62,"min":[0.125,0],"max":[0.875,1],"type":"VEC2","bufferView":1,"byteOffset":7504},{"name":"pCube10 polySurface34_1_0_indices","componentType":5123,"count":168,"min":[0],"max":[61],"type":"SCALAR","bufferView":2,"byteOffset":4104},{"name":"pCube10 polySurface33_1_positions","componentType":5126,"count":62,"min":[-4.603320121765137,0.4900110065937042,0.11058899760246277],"max":[-3.3201630115509033,1.462185025215149,1.3943120241165161],"type":"VEC3","bufferView":0,"byteOffset":12000},{"name":"pCube10 polySurface33_1_normals","componentType":5126,"count":62,"min":[-0.9318649768829346,-0.8926429748535156,-0.9306719899177551],"max":[0.8629459738731384,0.8882740139961243,0.8638619780540466],"type":"VEC3","bufferView":0,"byteOffset":28464},{"name":"pCube10 polySurface33_1_texcoords","componentType":5126,"count":62,"min":[0.125,0],"max":[0.875,1],"type":"VEC2","bufferView":1,"byteOffset":8000},{"name":"pCube10 polySurface33_1_0_indices","componentType":5123,"count":168,"min":[0],"max":[61],"type":"SCALAR","bufferView":2,"byteOffset":4440},{"name":"pCube14_1_positions","componentType":5126,"count":62,"min":[-3.988830089569092,0.41213300824165344,1.2933980226516724],"max":[-2.988830089569092,1.2784110307693481,2.5418999195098877],"type":"VEC3","bufferView":0,"byteOffset":12744},{"name":"pCube14_1_normals","componentType":5126,"count":62,"min":[-0.9922469854354858,-0.9638490080833435,-0.766044020652771],"max":[0.9922469854354858,0.9439129829406738,0.766044020652771],"type":"VEC3","bufferView":0,"byteOffset":29208},{"name":"pCube14_1_texcoords","componentType":5126,"count":62,"min":[0.125,0],"max":[0.875,1],"type":"VEC2","bufferView":1,"byteOffset":8496},{"name":"pCube14_1_0_indices","componentType":5123,"count":168,"min":[0],"max":[61],"type":"SCALAR","bufferView":2,"byteOffset":4776},{"name":"pCube10 polySurface36_1_positions","componentType":5126,"count":62,"min":[-3.7067248821258545,0.1918479949235916,1.0390679836273193],"max":[-2.3653581142425537,0.8887240290641785,2.381230115890503],"type":"VEC3","bufferView":0,"byteOffset":13488},{"name":"pCube10 polySurface36_1_normals","componentType":5126,"count":62,"min":[-0.916916012763977,-0.967278003692627,-0.9180449843406677],"max":[0.967041015625,0.9647960066795349,0.9658030271530151],"type":"VEC3","bufferView":0,"byteOffset":29952},{"name":"pCube10 polySurface36_1_texcoords","componentType":5126,"count":62,"min":[0.125,0],"max":[0.875,1],"type":"VEC2","bufferView":1,"byteOffset":8992},{"name":"pCube10 polySurface36_1_0_indices","componentType":5123,"count":168,"min":[0],"max":[61],"type":"SCALAR","bufferView":2,"byteOffset":5112},{"name":"pCube12_1_positions","componentType":5126,"count":62,"min":[-4.0067830085754395,0.35318300127983093,0.003828000044450164],"max":[-3.002614974975586,1.313720941543579,1.0049060583114624],"type":"VEC3","bufferView":0,"byteOffset":14232},{"name":"pCube12_1_normals","componentType":5126,"count":62,"min":[-0.9888370037078857,-0.8418830037117004,-0.8925920128822327],"max":[0.9919440150260925,0.8357059955596924,0.8581330180168152],"type":"VEC3","bufferView":0,"byteOffset":30696},{"name":"pCube12_1_texcoords","componentType":5126,"count":62,"min":[0.125,0],"max":[0.875,1],"type":"VEC2","bufferView":1,"byteOffset":9488},{"name":"pCube12_1_0_indices","componentType":5123,"count":168,"min":[0],"max":[61],"type":"SCALAR","bufferView":2,"byteOffset":5448},{"name":"pCube10 polySurface39_1_positions","componentType":5126,"count":62,"min":[-4.51298189163208,0.21544800698757172,0.958765983581543],"max":[-3.215325117111206,0.8949040174484253,2.255803108215332],"type":"VEC3","bufferView":0,"byteOffset":14976},{"name":"pCube10 polySurface39_1_normals","componentType":5126,"count":62,"min":[-0.8765580058097839,-0.9968879818916321,-0.9401540160179138],"max":[0.9389510154724121,0.9898679852485657,0.875590980052948],"type":"VEC3","bufferView":0,"byteOffset":31440},{"name":"pCube10 polySurface39_1_texcoords","componentType":5126,"count":62,"min":[0.125,0],"max":[0.875,1],"type":"VEC2","bufferView":1,"byteOffset":9984},{"name":"pCube10 polySurface39_1_0_indices","componentType":5123,"count":168,"min":[0],"max":[61],"type":"SCALAR","bufferView":2,"byteOffset":5784},{"name":"pCube2_1_positions","componentType":5126,"count":62,"min":[-4.457305908203125,0.7430629730224609,0.706125020980835],"max":[-3.6058759689331055,1.4599930047988892,1.706125020980835],"type":"VEC3","bufferView":0,"byteOffset":15720},{"name":"pCube2_1_normals","componentType":5126,"count":62,"min":[-0.8874959945678711,-0.9048320055007935,-0.985010027885437],"max":[0.8660249710083008,0.8986330032348633,0.985010027885437],"type":"VEC3","bufferView":0,"byteOffset":32184},{"name":"pCube2_1_texcoords","componentType":5126,"count":62,"min":[0.125,0],"max":[0.875,1],"type":"VEC2","bufferView":1,"byteOffset":10480},{"name":"pCube2_1_0_indices","componentType":5123,"count":168,"min":[0],"max":[61],"type":"SCALAR","bufferView":2,"byteOffset":6120}],"asset":{"generator":"obj2gltf","version":"2.0"},"buffers":[{"name":"flower","byteLength":50360,"uri":"data:application/octet-stream;base64,"}],"bufferViews":[{"name":"bufferView_0","buffer":0,"byteLength":32928,"byteOffset":0,"byteStride":12,"target":34962},{"name":"bufferView_1","buffer":0,"byteLength":10976,"byteOffset":32928,"byteStride":8,"target":34962},{"name":"bufferView_2","buffer":0,"byteLength":6456,"byteOffset":43904,"target":34963}],"materials":[{"name":"lambert8SG","pbrMetallicRoughness":{"baseColorFactor":[0.85,0.1,0.27,1],"metallicFactor":0,"roughnessFactor":1},"emissiveFactor":[0,0,0],"alphaMode":"OPAQUE","doubleSided":false},{"name":"lambert4SG","pbrMetallicRoughness":{"baseColorFactor":[0.13,0.74,0.25,1],"metallicFactor":0,"roughnessFactor":1},"emissiveFactor":[0,0,0],"alphaMode":"OPAQUE","doubleSided":false},{"name":"lambert3SG","pbrMetallicRoughness":{"baseColorFactor":[0.75,0.65,0.25,1],"metallicFactor":0,"roughnessFactor":1},"emissiveFactor":[0,0,0],"alphaMode":"OPAQUE","doubleSided":false}],"meshes":[{"name":"pCube13_1","primitives":[{"attributes":{"POSITION":0,"NORMAL":1,"TEXCOORD_0":2},"indices":3,"material":0,"mode":4}]},{"name":"polySurface38 pCube10_1","primitives":[{"attributes":{"POSITION":4,"NORMAL":5,"TEXCOORD_0":6},"indices":7,"material":1,"mode":4}]},{"name":"pCube4_1","primitives":[{"attributes":{"POSITION":8,"NORMAL":9,"TEXCOORD_0":10},"indices":11,"material":0,"mode":4}]},{"name":"pCube5_1","primitives":[{"attributes":{"POSITION":12,"NORMAL":13,"TEXCOORD_0":14},"indices":15,"material":0,"mode":4}]},{"name":"pCube10 polySurface31_1","primitives":[{"attributes":{"POSITION":16,"NORMAL":17,"TEXCOORD_0":18},"indices":19,"material":0,"mode":4}]},{"name":"pCube1_1","primitives":[{"attributes":{"POSITION":20,"NORMAL":21,"TEXCOORD_0":22},"indices":23,"material":0,"mode":4}]},{"name":"pCube10 polySurface35_1","primitives":[{"attributes":{"POSITION":24,"NORMAL":25,"TEXCOORD_0":26},"indices":27,"material":2,"mode":4}]},{"name":"pCube10 polySurface37_1","primitives":[{"attributes":{"POSITION":28,"NORMAL":29,"TEXCOORD_0":30},"indices":31,"material":1,"mode":4}]},{"name":"pCube11_1","primitives":[{"attributes":{"POSITION":32,"NORMAL":33,"TEXCOORD_0":34},"indices":35,"material":0,"mode":4}]},{"name":"pCube10 polySurface32_1","primitives":[{"attributes":{"POSITION":36,"NORMAL":37,"TEXCOORD_0":38},"indices":39,"material":0,"mode":4}]},{"name":"pCube10 polySurface34_1","primitives":[{"attributes":{"POSITION":40,"NORMAL":41,"TEXCOORD_0":42},"indices":43,"material":0,"mode":4}]},{"name":"pCube10 polySurface33_1","primitives":[{"attributes":{"POSITION":44,"NORMAL":45,"TEXCOORD_0":46},"indices":47,"material":0,"mode":4}]},{"name":"pCube14_1","primitives":[{"attributes":{"POSITION":48,"NORMAL":49,"TEXCOORD_0":50},"indices":51,"material":0,"mode":4}]},{"name":"pCube10 polySurface36_1","primitives":[{"attributes":{"POSITION":52,"NORMAL":53,"TEXCOORD_0":54},"indices":55,"material":1,"mode":4}]},{"name":"pCube12_1","primitives":[{"attributes":{"POSITION":56,"NORMAL":57,"TEXCOORD_0":58},"indices":59,"material":0,"mode":4}]},{"name":"pCube10 polySurface39_1","primitives":[{"attributes":{"POSITION":60,"NORMAL":61,"TEXCOORD_0":62},"indices":63,"material":1,"mode":4}]},{"name":"pCube2_1","primitives":[{"attributes":{"POSITION":64,"NORMAL":65,"TEXCOORD_0":66},"indices":67,"material":0,"mode":4}]}],"nodes":[{"name":"pCube13","mesh":0},{"name":"polySurface38 pCube10","mesh":1},{"name":"pCube4","mesh":2},{"name":"pCube5","mesh":3},{"name":"pCube10 polySurface31","mesh":4},{"name":"pCube1","mesh":5},{"name":"pCube10 polySurface35","mesh":6},{"name":"pCube10 polySurface37","mesh":7},{"name":"pCube11","mesh":8},{"name":"pCube10 polySurface32","mesh":9},{"name":"pCube10 polySurface34","mesh":10},{"name":"pCube10 polySurface33","mesh":11},{"name":"pCube14","mesh":12},{"name":"pCube10 polySurface36","mesh":13},{"name":"pCube12","mesh":14},{"name":"pCube10 polySurface39","mesh":15},{"name":"pCube2","mesh":16}],"scene":0,"scenes":[{"nodes":[0,1,2,3,4,5,6,7,8,9,10,11,12,13,14,15,16]}]}
