{"accessors":[{"name":"Lilypad_mesh_1_positions","componentType":5126,"count":1604,"min":[-5.180932998657227,0,-5.438858985900879],"max":[5.531528949737549,2.9948410987854004,5.438858985900879],"type":"VEC3","bufferView":0,"byteOffset":0},{"name":"Lilypad_mesh_1_normals","componentType":5126,"count":1604,"min":[-0.9991549849510193,-1,-1],"max":[0.9991549849510193,0.9998289942741394,1],"type":"VEC3","bufferView":0,"byteOffset":19248},{"name":"Lilypad_mesh_1_texcoords","componentType":5126,"count":1604,"min":[0.00024199999461416155,0.006697999779134989],"max":[0.9940080046653748,0.9925360083580017],"type":"VEC2","bufferView":1,"byteOffset":0},{"name":"Lilypad_mesh_1_0_indices","componentType":5123,"count":2184,"min":[0],"max":[1603],"type":"SCALAR","bufferView":2,"byteOffset":0}],"asset":{"generator":"obj2gltf","version":"2.0"},"buffers":[{"name":"LilyPad","byteLength":2270692,"uri":"data:application/octet-stream;base64,"}],"bufferViews":[{"name":"bufferView_0","buffer":0,"byteLength":38496,"byteOffset":0,"byteStride":12,"target":34962},{"name":"bufferView_1","buffer":0,"byteLength":12832,"byteOffset":38496,"byteStride":8,"target":34962},{"name":"bufferView_2","buffer":0,"byteLength":4368,"byteOffset":51328,"target":34963},{"buffer":0,"byteOffset":55696,"byteLength":2214993}],"images":[{"name":"Lilypad_BaseColor","mimeType":"image/png","bufferView":3}],"materials":[{"name":"blinn1SG","pbrMetallicRoughness":{"baseColorTexture":{"index":0},"baseColorFactor":[1,1,1,1],"metallicFactor":0,"roughnessFactor":1},"emissiveFactor":[0,0,0],"alphaMode":"OPAQUE","doubleSided":false}],"meshes":[{"name":"Lilypad_mesh_1","primitives":[{"attributes":{"POSITION":0,"NORMAL":1,"TEXCOORD_0":2},"indices":3,"material":0,"mode":4}]}],"nodes":[{"name":"Lilypad_mesh","mesh":0}],"samplers":[{"magFilter":9729,"minFilter":9986,"wrapS":10497,"wrapT":10497}],"scene":0,"scenes":[{"nodes":[0]}],"textures":[{"name":"Lilypad_BaseColor","sampler":0,"source":0}]}
