{"accessors":[{"name":"PUSHILIN_Kayak_Circle.003-Mesh_positions","componentType":5126,"count":1122,"min":[-1.9717199802398682,-0.35269200801849365,-1.1079130172729492],"max":[1.9717199802398682,0.35269200801849365,1.1079130172729492],"type":"VEC3","bufferView":0,"byteOffset":0},{"name":"PUSHILIN_Kayak_Circle.003-Mesh_normals","componentType":5126,"count":1122,"min":[-0.9998000264167786,-1,-1],"max":[0.9998000264167786,1,1],"type":"VEC3","bufferView":0,"byteOffset":13464},{"name":"PUSHILIN_Kayak_Circle.003-Mesh_texcoords","componentType":5126,"count":1122,"min":[0.009100000374019146,0.009100000374019146],"max":[0.9908999800682068,0.9908999800682068],"type":"VEC2","bufferView":1,"byteOffset":0},{"name":"PUSHILIN_Kayak_Circle.003-Mesh_0_indices","componentType":5123,"count":1638,"min":[0],"max":[1121],"type":"SCALAR","bufferView":2,"byteOffset":0}],"asset":{"generator":"obj2gltf","version":"2.0"},"buffers":[{"name":"PUSHILIN_Kayak","byteLength":275020,"uri":"data:application/octet-stream;base64,"}],"bufferViews":[{"name":"bufferView_0","buffer":0,"byteLength":26928,"byteOffset":0,"byteStride":12,"target":34962},{"name":"bufferView_1","buffer":0,"byteLength":8976,"byteOffset":26928,"byteStride":8,"target":34962},{"name":"bufferView_2","buffer":0,"byteLength":3276,"byteOffset":35904,"target":34963},{"buffer":0,"byteOffset":39180,"byteLength":235838}],"images":[{"name":"PUSHILIN_kayak","mimeType":"image/png","bufferView":3}],"materials":[{"name":"kayak","pbrMetallicRoughness":{"baseColorTexture":{"index":0},"baseColorFactor":[1,1,1,1],"metallicFactor":0,"roughnessFactor":0.903921569},"emissiveFactor":[0,0,0],"alphaMode":"OPAQUE","doubleSided":false}],"meshes":[{"name":"PUSHILIN_Kayak_Circle.003-Mesh","primitives":[{"attributes":{"POSITION":0,"NORMAL":1,"TEXCOORD_0":2},"indices":3,"material":0,"mode":4}]}],"nodes":[{"name":"PUSHILIN_Kayak_Circle.003","mesh":0}],"samplers":[{"magFilter":9729,"minFilter":9986,"wrapS":10497,"wrapT":10497}],"scene":0,"scenes":[{"nodes":[0]}],"textures":[{"name":"PUSHILIN_kayak","sampler":0,"source":0}]}
